<svg width="178" height="178" viewBox="0 0 178 178" fill="none" xmlns="http://www.w3.org/2000/svg"><rect width="178" height="178" rx="46" fill="#5533EE"></rect><path d="M112.386 35.1C129.238 35.1001 142.9 48.7617 142.9 65.6142C142.9 74.729 138.902 82.9083 132.566 88.4996C138.902 94.091 142.9 102.271 142.9 111.386C142.9 128.238 129.238 141.9 112.386 141.9C103.271 141.9 95.0911 137.902 89.4998 131.565C83.9084 137.902 75.7291 141.9 66.6143 141.9C49.7618 141.9 36.1002 128.238 36.1001 111.386C36.1001 102.271 40.097 94.091 46.4327 88.4996C40.0972 82.9083 36.1001 74.7285 36.1001 65.6142C36.1001 48.7617 49.7618 35.1 66.6143 35.1C75.7286 35.1 83.9084 39.097 89.4998 45.4326C95.0911 39.0969 103.271 35.1 112.386 35.1ZM105.605 55.4432C98.0923 55.4434 91.7243 60.3305 89.4998 67.0985C87.2752 60.3304 80.9074 55.4432 73.3949 55.4432C64.0325 55.4434 56.4433 63.033 56.4433 72.3955C56.4436 79.9076 61.3308 86.2751 68.0986 88.4996C61.3307 90.7243 56.4434 97.0922 56.4433 104.604C56.4435 113.967 64.0326 121.556 73.3949 121.556C80.908 121.556 87.2757 116.668 89.4998 109.899C91.7238 116.668 98.0917 121.556 105.605 121.556C114.967 121.556 122.556 113.967 122.556 104.604C122.556 97.0914 117.668 90.7237 110.899 88.4996C117.668 86.2757 122.556 79.9084 122.556 72.3955C122.556 63.033 114.967 55.4434 105.605 55.4432ZM89.4998 75.6163C96.6153 75.6163 102.384 81.3842 102.384 88.4996C102.384 95.6152 96.6153 101.384 89.4998 101.384C82.3843 101.384 76.6164 95.6151 76.6164 88.4996C76.6165 81.3842 82.3843 75.6164 89.4998 75.6163Z" fill="white"></path></svg>
